<?xml version="1.0" encoding="UTF-8"?>
<!-- Generated by Pixelmator Pro 3.6.8 -->
<svg width="256" height="256" viewBox="0 0 256 256" xmlns="http://www.w3.org/2000/svg">
    <g id="nomos">
        <g id="1">
            <path id="Pfad" fill="#000000" stroke="none" d="M 210.68309 56.050156 C 202.443375 56.050156 195.763763 62.729767 195.763763 70.969482 L 195.763763 134.49321 C 195.699753 142.687378 189.038834 149.296234 180.844437 149.29599 L 167.479202 149.29599 C 159.360626 149.190521 152.816879 142.612228 152.754135 134.49321 L 152.754135 117.670105 C 152.775314 113.665909 151.18602 109.821274 148.343643 107.000809 C 145.501282 104.180374 141.644455 102.62088 137.640533 102.673065 L 120.77858 102.673065 C 112.538864 102.673065 105.859253 95.993454 105.859253 87.753738 L 105.859253 70.969482 C 105.859253 62.729767 99.179634 56.050156 90.939919 56.050156 L 70.620094 56.050156 C 66.649803 56.02948 62.835018 57.592194 60.020271 60.392365 C 57.205524 63.19252 55.623005 66.999146 55.623062 70.969482 L 55.623062 87.831436 C 55.580574 96.010574 48.960575 102.630585 40.781437 102.673065 L 23.919481 102.673065 C 19.949129 102.673019 16.142515 104.255539 13.342354 107.070282 C 10.542192 109.885025 8.979471 113.699814 9.000151 117.670105 L 9.000151 199.804138 L 44.278152 199.804138 C 52.517872 199.804138 59.197487 193.124527 59.197487 184.884796 L 59.197487 121.166824 C 59.197487 112.927109 65.877098 106.247498 74.116821 106.247498 L 87.443199 106.247498 C 95.63736 106.311508 102.246223 112.972412 102.245972 121.166824 L 102.245972 137.989929 C 102.245972 146.229645 108.925591 152.909271 117.165306 152.909271 L 134.027252 152.909271 C 142.266983 152.909271 148.946594 159.588867 148.946594 167.828583 L 148.946594 184.690552 C 148.894241 188.701233 150.459015 192.564087 153.287933 195.407623 C 156.116837 198.251129 159.971573 199.835815 163.982483 199.804138 L 184.341156 199.804138 C 188.352066 199.835815 192.206772 198.251129 195.03569 195.407623 C 197.864594 192.564087 199.429382 188.701233 199.377045 184.690552 L 199.377045 167.828583 C 199.377045 159.588867 206.056656 152.909271 214.296371 152.909271 L 231.119461 152.909271 C 235.072769 152.909271 238.863571 151.336182 241.655319 148.53714 C 244.447067 145.738098 246.010269 141.943207 245.999954 137.989929 L 245.999954 56.050156 Z"/>
        </g>
    </g>
</svg>
